<svg width="200" height="200" viewBox="0 0 200 200" fill="none" xmlns="http://www.w3.org/2000/svg">
<path fill-rule="evenodd" clip-rule="evenodd" d="M183.333 70.8332C183.333 61.5832 175.917 54.1666 166.667 54.1666H133.333V37.4999C133.333 28.2499 125.917 20.8333 116.667 20.8333H83.3333C74.0833 20.8333 66.6667 28.2499 66.6667 37.4999V54.1666H33.3333C24.0833 54.1666 16.75 61.5832 16.75 70.8332L16.6667 162.5C16.6667 171.75 24.0833 179.167 33.3333 179.167H166.667C175.917 179.167 183.333 171.75 183.333 162.5V70.8332ZM116.667 54.1666V37.5H83.3333V54.1666H116.667ZM33.3333 70.8332V162.5H166.667V70.8332H33.3333Z" fill="#786666"/>
</svg>
