<svg width="1340" height="723" viewBox="0 0 1340 723" fill="none" xmlns="http://www.w3.org/2000/svg">
<g filter="url(#filter0_d)">
<path d="M1336 339.611C1336 147.991 1189.2 0 1007.56 0C825.917 0 724.063 157.764 724.063 157.764L793.746 240.136C793.746 240.136 879.689 97.2643 1006.86 97.2643C1134.03 97.2643 1235.08 196.623 1235.08 337.4C1235.08 478.177 1127.18 591.148 1028.12 591.148C732.309 591.148 709.081 0 332.558 0C151.613 0 4 155.32 4 346.94C4 538.56 148.826 693.997 332.558 693.997C516.29 693.997 630.106 510.638 630.106 510.638L567.623 435.246C567.623 435.246 458.336 591.148 331.977 591.148C201.669 591.148 103.183 484.46 103.183 344.264C103.183 204.069 201.437 97.2643 331.977 97.2643C628.364 97.2643 669.594 695.51 1026.02 693.997C1184.09 693.997 1336 531.231 1336 339.611Z" fill="#F2F2F2" fill-opacity="0.1"/>
</g>
<path d="M288.1 317C288.1 312.667 288.867 308.4 290.4 304.2C292 299.933 294.3 296.133 297.3 292.8C300.3 289.467 303.967 286.767 308.3 284.7C312.633 282.633 317.567 281.6 323.1 281.6C329.633 281.6 335.267 283.033 340 285.9C344.8 288.767 348.367 292.5 350.7 297.1L340.1 304.4C339.167 302.4 338.033 300.733 336.7 299.4C335.367 298 333.933 296.9 332.4 296.1C330.867 295.3 329.267 294.733 327.6 294.4C325.933 294 324.3 293.8 322.7 293.8C319.233 293.8 316.2 294.5 313.6 295.9C311.067 297.3 308.933 299.133 307.2 301.4C305.533 303.6 304.267 306.133 303.4 309C302.533 311.8 302.1 314.6 302.1 317.4C302.1 320.533 302.6 323.567 303.6 326.5C304.6 329.367 306 331.9 307.8 334.1C309.667 336.3 311.867 338.067 314.4 339.4C317 340.733 319.833 341.4 322.9 341.4C324.5 341.4 326.167 341.2 327.9 340.8C329.633 340.4 331.267 339.767 332.8 338.9C334.4 338.033 335.867 336.933 337.2 335.6C338.533 334.2 339.6 332.533 340.4 330.6L351.7 337.1C350.567 339.767 348.933 342.133 346.8 344.2C344.733 346.2 342.367 347.9 339.7 349.3C337.1 350.7 334.3 351.767 331.3 352.5C328.3 353.233 325.367 353.6 322.5 353.6C317.433 353.6 312.8 352.533 308.6 350.4C304.4 348.267 300.767 345.5 297.7 342.1C294.7 338.633 292.333 334.733 290.6 330.4C288.933 326 288.1 321.533 288.1 317ZM395.571 353.5C390.371 353.5 385.638 352.5 381.371 350.5C377.171 348.433 373.538 345.733 370.471 342.4C367.471 339 365.138 335.133 363.471 330.8C361.804 326.467 360.971 322.033 360.971 317.5C360.971 312.767 361.838 308.233 363.571 303.9C365.371 299.567 367.804 295.733 370.871 292.4C374.004 289.067 377.704 286.433 381.971 284.5C386.238 282.5 390.871 281.5 395.871 281.5C401.004 281.5 405.671 282.567 409.871 284.7C414.138 286.767 417.771 289.5 420.771 292.9C423.771 296.3 426.104 300.167 427.771 304.5C429.438 308.833 430.271 313.233 430.271 317.7C430.271 322.433 429.404 326.967 427.671 331.3C425.938 335.567 423.538 339.367 420.471 342.7C417.404 345.967 413.738 348.6 409.471 350.6C405.204 352.533 400.571 353.5 395.571 353.5ZM374.971 317.5C374.971 320.567 375.438 323.533 376.371 326.4C377.304 329.267 378.638 331.8 380.371 334C382.171 336.2 384.338 337.967 386.871 339.3C389.471 340.633 392.404 341.3 395.671 341.3C399.004 341.3 401.938 340.633 404.471 339.3C407.071 337.9 409.238 336.067 410.971 333.8C412.771 331.533 414.104 329 414.971 326.2C415.904 323.333 416.371 320.433 416.371 317.5C416.371 314.433 415.871 311.467 414.871 308.6C413.938 305.733 412.571 303.2 410.771 301C409.038 298.8 406.871 297.067 404.271 295.8C401.738 294.467 398.871 293.8 395.671 293.8C392.338 293.8 389.371 294.5 386.771 295.9C384.171 297.233 382.004 299.033 380.271 301.3C378.538 303.5 377.204 306.033 376.271 308.9C375.404 311.7 374.971 314.567 374.971 317.5ZM503.757 353V306L485.457 341H477.957L459.657 306V353H445.857V282H460.657L481.657 322.4L502.857 282H517.557V353H503.757ZM537.38 353V282H551.18V353H537.38ZM584.794 307.5V353H570.994V282H581.694L618.694 328.6V282.1H632.494V353H621.294L584.794 307.5ZM701.563 345C695.897 350.667 689.297 353.5 681.763 353.5C677.097 353.5 672.697 352.567 668.563 350.7C664.497 348.833 660.93 346.267 657.863 343C654.863 339.733 652.463 335.9 650.663 331.5C648.93 327.033 648.063 322.233 648.063 317.1C648.063 312.233 648.93 307.667 650.663 303.4C652.463 299.067 654.897 295.3 657.963 292.1C661.097 288.833 664.763 286.267 668.963 284.4C673.163 282.467 677.73 281.5 682.663 281.5C689.33 281.5 695.03 282.9 699.763 285.7C704.563 288.5 708.163 292.267 710.563 297L700.263 304.6C698.463 301.067 695.93 298.367 692.663 296.5C689.463 294.633 685.963 293.7 682.163 293.7C679.163 293.7 676.397 294.333 673.863 295.6C671.397 296.867 669.263 298.6 667.463 300.8C665.73 303 664.363 305.533 663.363 308.4C662.43 311.267 661.963 314.3 661.963 317.5C661.963 320.833 662.497 323.967 663.563 326.9C664.63 329.767 666.097 332.267 667.963 334.4C669.83 336.533 672.03 338.233 674.563 339.5C677.163 340.7 679.963 341.3 682.963 341.3C689.83 341.3 696.03 338.067 701.563 331.6V326.6H687.263V316.5H712.963V353H701.563V345ZM801.048 300.6C800.581 300.133 799.714 299.5 798.448 298.7C797.248 297.9 795.748 297.133 793.948 296.4C792.214 295.6 790.314 294.933 788.248 294.4C786.181 293.867 784.081 293.6 781.948 293.6C778.148 293.6 775.314 294.3 773.448 295.7C771.581 297.1 770.648 299.067 770.648 301.6C770.648 303.067 770.981 304.3 771.648 305.3C772.381 306.233 773.414 307.067 774.748 307.8C776.081 308.533 777.748 309.2 779.748 309.8C781.814 310.4 784.181 311.033 786.848 311.7C790.314 312.633 793.448 313.633 796.248 314.7C799.114 315.767 801.514 317.1 803.448 318.7C805.448 320.3 806.981 322.233 808.048 324.5C809.114 326.7 809.648 329.433 809.648 332.7C809.648 336.5 808.914 339.767 807.448 342.5C806.048 345.167 804.114 347.333 801.648 349C799.248 350.667 796.448 351.9 793.248 352.7C790.114 353.433 786.814 353.8 783.348 353.8C778.014 353.8 772.748 353 767.548 351.4C762.348 349.8 757.681 347.533 753.548 344.6L759.648 332.7C760.248 333.3 761.314 334.1 762.848 335.1C764.448 336.033 766.314 337 768.448 338C770.581 338.933 772.948 339.733 775.548 340.4C778.148 341.067 780.814 341.4 783.548 341.4C791.148 341.4 794.948 338.967 794.948 334.1C794.948 332.567 794.514 331.267 793.648 330.2C792.781 329.133 791.548 328.2 789.948 327.4C788.348 326.6 786.414 325.867 784.148 325.2C781.881 324.533 779.348 323.8 776.548 323C773.148 322.067 770.181 321.067 767.648 320C765.181 318.867 763.114 317.567 761.448 316.1C759.781 314.567 758.514 312.833 757.648 310.9C756.848 308.9 756.448 306.533 756.448 303.8C756.448 300.2 757.114 297 758.448 294.2C759.781 291.4 761.614 289.067 763.948 287.2C766.348 285.333 769.114 283.933 772.248 283C775.381 282 778.748 281.5 782.348 281.5C787.348 281.5 791.948 282.3 796.148 283.9C800.348 285.433 804.014 287.267 807.148 289.4L801.048 300.6ZM855.376 353.5C850.176 353.5 845.442 352.5 841.176 350.5C836.976 348.433 833.342 345.733 830.276 342.4C827.276 339 824.942 335.133 823.276 330.8C821.609 326.467 820.776 322.033 820.776 317.5C820.776 312.767 821.642 308.233 823.376 303.9C825.176 299.567 827.609 295.733 830.676 292.4C833.809 289.067 837.509 286.433 841.776 284.5C846.042 282.5 850.676 281.5 855.676 281.5C860.809 281.5 865.476 282.567 869.676 284.7C873.942 286.767 877.576 289.5 880.576 292.9C883.576 296.3 885.909 300.167 887.576 304.5C889.242 308.833 890.076 313.233 890.076 317.7C890.076 322.433 889.209 326.967 887.476 331.3C885.742 335.567 883.342 339.367 880.276 342.7C877.209 345.967 873.542 348.6 869.276 350.6C865.009 352.533 860.376 353.5 855.376 353.5ZM834.776 317.5C834.776 320.567 835.242 323.533 836.176 326.4C837.109 329.267 838.442 331.8 840.176 334C841.976 336.2 844.142 337.967 846.676 339.3C849.276 340.633 852.209 341.3 855.476 341.3C858.809 341.3 861.742 340.633 864.276 339.3C866.876 337.9 869.042 336.067 870.776 333.8C872.576 331.533 873.909 329 874.776 326.2C875.709 323.333 876.176 320.433 876.176 317.5C876.176 314.433 875.676 311.467 874.676 308.6C873.742 305.733 872.376 303.2 870.576 301C868.842 298.8 866.676 297.067 864.076 295.8C861.542 294.467 858.676 293.8 855.476 293.8C852.142 293.8 849.176 294.5 846.576 295.9C843.976 297.233 841.809 299.033 840.076 301.3C838.342 303.5 837.009 306.033 836.076 308.9C835.209 311.7 834.776 314.567 834.776 317.5ZM935.962 353.5C930.762 353.5 926.028 352.5 921.762 350.5C917.562 348.433 913.928 345.733 910.862 342.4C907.862 339 905.528 335.133 903.862 330.8C902.195 326.467 901.362 322.033 901.362 317.5C901.362 312.767 902.228 308.233 903.962 303.9C905.762 299.567 908.195 295.733 911.262 292.4C914.395 289.067 918.095 286.433 922.362 284.5C926.628 282.5 931.262 281.5 936.262 281.5C941.395 281.5 946.062 282.567 950.262 284.7C954.528 286.767 958.162 289.5 961.162 292.9C964.162 296.3 966.495 300.167 968.162 304.5C969.828 308.833 970.662 313.233 970.662 317.7C970.662 322.433 969.795 326.967 968.062 331.3C966.328 335.567 963.928 339.367 960.862 342.7C957.795 345.967 954.128 348.6 949.862 350.6C945.595 352.533 940.962 353.5 935.962 353.5ZM915.362 317.5C915.362 320.567 915.828 323.533 916.762 326.4C917.695 329.267 919.028 331.8 920.762 334C922.562 336.2 924.728 337.967 927.262 339.3C929.862 340.633 932.795 341.3 936.062 341.3C939.395 341.3 942.328 340.633 944.862 339.3C947.462 337.9 949.628 336.067 951.362 333.8C953.162 331.533 954.495 329 955.362 326.2C956.295 323.333 956.762 320.433 956.762 317.5C956.762 314.433 956.262 311.467 955.262 308.6C954.328 305.733 952.962 303.2 951.162 301C949.428 298.8 947.262 297.067 944.662 295.8C942.128 294.467 939.262 293.8 936.062 293.8C932.728 293.8 929.762 294.5 927.162 295.9C924.562 297.233 922.395 299.033 920.662 301.3C918.928 303.5 917.595 306.033 916.662 308.9C915.795 311.7 915.362 314.567 915.362 317.5ZM1000.05 307.5V353H986.248V282H996.948L1033.95 328.6V282.1H1047.75V353H1036.55L1000.05 307.5Z" fill="#F64E5A"/>
<path d="M583.85 408.35C583.85 410.55 583.533 412.583 582.9 414.45C582.267 416.283 581.383 417.883 580.25 419.25C579.15 420.583 577.833 421.633 576.3 422.4C574.767 423.133 573.1 423.5 571.3 423.5C569.5 423.5 567.833 423.133 566.3 422.4C564.767 421.633 563.433 420.583 562.3 419.25C561.2 417.883 560.333 416.283 559.7 414.45C559.067 412.583 558.75 410.55 558.75 408.35C558.75 406.15 559.067 404.133 559.7 402.3C560.333 400.433 561.2 398.833 562.3 397.5C563.433 396.133 564.767 395.067 566.3 394.3C567.833 393.533 569.5 393.15 571.3 393.15C573.1 393.15 574.767 393.533 576.3 394.3C577.833 395.067 579.15 396.133 580.25 397.5C581.383 398.833 582.267 400.433 582.9 402.3C583.533 404.133 583.85 406.15 583.85 408.35ZM580.4 408.35C580.4 406.55 580.167 404.917 579.7 403.45C579.267 401.983 578.65 400.733 577.85 399.7C577.05 398.633 576.083 397.817 574.95 397.25C573.85 396.65 572.633 396.35 571.3 396.35C569.933 396.35 568.683 396.65 567.55 397.25C566.45 397.817 565.5 398.633 564.7 399.7C563.9 400.733 563.267 401.983 562.8 403.45C562.367 404.917 562.15 406.55 562.15 408.35C562.15 410.15 562.367 411.783 562.8 413.25C563.267 414.717 563.9 415.983 564.7 417.05C565.5 418.083 566.45 418.883 567.55 419.45C568.683 420.017 569.933 420.3 571.3 420.3C572.633 420.3 573.85 420.017 574.95 419.45C576.083 418.883 577.05 418.083 577.85 417.05C578.65 415.983 579.267 414.717 579.7 413.25C580.167 411.783 580.4 410.15 580.4 408.35ZM591.315 423C591.315 421.867 591.415 420.733 591.615 419.6C591.815 418.433 592.199 417.283 592.765 416.15C593.365 415.017 594.199 413.933 595.265 412.9C596.365 411.833 597.815 410.833 599.615 409.9C600.582 409.4 601.582 408.917 602.615 408.45C603.682 407.95 604.649 407.4 605.515 406.8C606.415 406.2 607.149 405.533 607.715 404.8C608.282 404.033 608.565 403.15 608.565 402.15C608.565 401.517 608.415 400.9 608.115 400.3C607.849 399.667 607.432 399.117 606.865 398.65C606.332 398.15 605.649 397.75 604.815 397.45C604.015 397.15 603.065 397 601.965 397C600.865 397 599.882 397.167 599.015 397.5C598.149 397.8 597.382 398.167 596.715 398.6C596.082 399.033 595.532 399.5 595.065 400C594.599 400.467 594.249 400.85 594.015 401.15L591.765 398.7C591.965 398.5 592.349 398.133 592.915 397.6C593.482 397.067 594.215 396.533 595.115 396C596.049 395.467 597.132 395 598.365 394.6C599.599 394.167 600.982 393.95 602.515 393.95C604.049 393.95 605.415 394.167 606.615 394.6C607.815 395 608.832 395.567 609.665 396.3C610.499 397.033 611.132 397.883 611.565 398.85C611.999 399.783 612.215 400.767 612.215 401.8C612.215 403.167 611.915 404.35 611.315 405.35C610.715 406.35 609.965 407.217 609.065 407.95C608.199 408.683 607.265 409.317 606.265 409.85C605.265 410.35 604.365 410.783 603.565 411.15C602.499 411.617 601.449 412.15 600.415 412.75C599.415 413.317 598.515 413.95 597.715 414.65C596.915 415.35 596.249 416.133 595.715 417C595.215 417.867 594.965 418.833 594.965 419.9H612.765V423H591.315ZM646.489 387.5L622.889 423H619.039L642.639 387.5H646.489ZM669.835 419.9V423H652.885V419.9H659.985V398.5C659.718 398.9 659.252 399.333 658.585 399.8C657.952 400.267 657.235 400.7 656.435 401.1C655.668 401.5 654.868 401.833 654.035 402.1C653.202 402.367 652.468 402.5 651.835 402.5V399.2C652.602 399.2 653.435 398.983 654.335 398.55C655.268 398.117 656.135 397.617 656.935 397.05C657.768 396.483 658.468 395.95 659.035 395.45C659.602 394.95 659.918 394.617 659.985 394.45H663.485V419.9H669.835ZM691.222 429.35V420.45H674.572V417.45L692.322 394.45H694.622V417.35H699.022V420.45H694.622V429.35H691.222ZM678.172 417.35H691.572V399.8L678.172 417.35ZM732.017 387.5L708.417 423H704.567L728.167 387.5H732.017ZM736.97 423C736.97 421.867 737.07 420.733 737.27 419.6C737.47 418.433 737.853 417.283 738.42 416.15C739.02 415.017 739.853 413.933 740.92 412.9C742.02 411.833 743.47 410.833 745.27 409.9C746.236 409.4 747.236 408.917 748.27 408.45C749.336 407.95 750.303 407.4 751.17 406.8C752.07 406.2 752.803 405.533 753.37 404.8C753.936 404.033 754.22 403.15 754.22 402.15C754.22 401.517 754.07 400.9 753.77 400.3C753.503 399.667 753.086 399.117 752.52 398.65C751.986 398.15 751.303 397.75 750.47 397.45C749.67 397.15 748.72 397 747.62 397C746.52 397 745.536 397.167 744.67 397.5C743.803 397.8 743.036 398.167 742.37 398.6C741.736 399.033 741.186 399.5 740.72 400C740.253 400.467 739.903 400.85 739.67 401.15L737.42 398.7C737.62 398.5 738.003 398.133 738.57 397.6C739.136 397.067 739.87 396.533 740.77 396C741.703 395.467 742.786 395 744.02 394.6C745.253 394.167 746.636 393.95 748.17 393.95C749.703 393.95 751.07 394.167 752.27 394.6C753.47 395 754.486 395.567 755.32 396.3C756.153 397.033 756.786 397.883 757.22 398.85C757.653 399.783 757.87 400.767 757.87 401.8C757.87 403.167 757.57 404.35 756.97 405.35C756.37 406.35 755.62 407.217 754.72 407.95C753.853 408.683 752.92 409.317 751.92 409.85C750.92 410.35 750.02 410.783 749.22 411.15C748.153 411.617 747.103 412.15 746.07 412.75C745.07 413.317 744.17 413.95 743.37 414.65C742.57 415.35 741.903 416.133 741.37 417C740.87 417.867 740.62 418.833 740.62 419.9H758.42V423H736.97ZM783.644 419.9V423H766.694V419.9H773.794V398.5C773.527 398.9 773.06 399.333 772.394 399.8C771.76 400.267 771.044 400.7 770.244 401.1C769.477 401.5 768.677 401.833 767.844 402.1C767.01 402.367 766.277 402.5 765.644 402.5V399.2C766.41 399.2 767.244 398.983 768.144 398.55C769.077 398.117 769.944 397.617 770.744 397.05C771.577 396.483 772.277 395.95 772.844 395.45C773.41 394.95 773.727 394.617 773.794 394.45H777.294V419.9H783.644Z" fill="#F64E5A"/>
<defs>
<filter id="filter0_d" x="0" y="0" width="1340" height="723" filterUnits="userSpaceOnUse" color-interpolation-filters="sRGB">
<feFlood flood-opacity="0" result="BackgroundImageFix"/>
<feColorMatrix in="SourceAlpha" type="matrix" values="0 0 0 0 0 0 0 0 0 0 0 0 0 0 0 0 0 0 127 0"/>
<feOffset dy="25"/>
<feGaussianBlur stdDeviation="2"/>
<feColorMatrix type="matrix" values="0 0 0 0 0 0 0 0 0 0 0 0 0 0 0 0 0 0 0.25 0"/>
<feBlend mode="normal" in2="BackgroundImageFix" result="effect1_dropShadow"/>
<feBlend mode="normal" in="SourceGraphic" in2="effect1_dropShadow" result="shape"/>
</filter>
</defs>
</svg>
