<svg width="90" height="90" viewBox="0 0 90 90" fill="none" xmlns="http://www.w3.org/2000/svg">
<path d="M44.75 43.2499C51.5 43.2499 56.75 37.7499 56.75 30.9999C56.75 24.2499 51.25 18.9999 44.5 18.9999C37.75 18.9999 32.5 24.4999 32.5 30.9999C32.5 37.7499 38 43.2499 44.75 43.2499ZM44.5 23.9999C44.75 23.9999 44.75 23.9999 44.5 23.9999C48.5 23.9999 51.75 27.2499 51.75 31.2499C51.75 35.2499 48.5 38.2499 44.5 38.2499C40.5 38.2499 37.5 34.9999 37.5 31.2499C37.5 27.2499 40.75 23.9999 44.5 23.9999Z" fill="#616161"/>
<path d="M81.75 41.7501C77 37.5001 70.75 35.2501 64.25 35.5001H62.25C61.75 37.5001 61 39.2501 60 40.7501C61.5 40.5001 62.75 40.5001 64.25 40.5001C69 40.2501 73.75 41.7501 77.5 44.5001V62.5001H82.5V42.5001L81.75 41.7501Z" fill="#616161"/>
<path d="M58.5 19.5001C59.75 16.5001 63.25 15.0001 66.5 16.2501C69.5 17.5001 71 21.0001 69.75 24.2501C68.75 26.5001 66.5 28.0001 64.25 28.0001C63.75 28.0001 63 28.0001 62.5 27.7501C62.75 29.0001 62.75 30.2501 62.75 31.2501V32.7501C63.25 32.7501 63.75 33.0001 64.25 33.0001C70.5 33.0001 75.5 28.0001 75.5 22.0001C75.5 15.7501 70.5 10.7501 64.5 10.7501C60.5 10.7501 57 12.7501 55 16.2501C56.25 17.0001 57.5 18.0001 58.5 19.5001Z" fill="#616161"/>
<path d="M30 41.0002C29 39.5002 28.25 37.7502 27.75 35.7502H25.75C19.25 35.5002 13 37.7502 8.25 41.7502L7.5 42.5002V62.5002H12.5V44.5002C16.5 41.7502 21 40.2502 25.75 40.5002C27.25 40.5002 28.75 40.7502 30 41.0002Z" fill="#616161"/>
<path d="M25.75 32.75C26.25 32.75 26.75 32.75 27.25 32.5V31C27.25 29.75 27.25 28.5 27.5 27.5C27 27.75 26.25 27.75 25.75 27.75C22.5 27.75 19.75 25 19.75 21.75C19.75 18.5 22.5 15.75 25.75 15.75C28.25 15.75 30.5 17.25 31.5 19.5C32.5 18.25 34 17 35.25 16C32 10.75 25.25 9.00003 20 12.25C14.75 15.5 13 22.25 16.25 27.5C18.25 30.75 21.75 32.75 25.75 32.75Z" fill="#616161"/>
<path d="M65.25 56.7501L64.75 56.0001C59.75 50.5001 52.75 47.2501 45.25 47.5001C37.75 47.2501 30.5 50.5001 25.5 56.0001L25 56.7501V75.7501C25 78.0001 26.75 80.0001 29.25 80.0001H61.25C63.5 80.0001 65.5 78.0001 65.5 75.7501V56.7501H65.25ZM60.25 75.0001H30V58.5001C34 54.5001 39.5 52.5001 45.25 52.5001C50.75 52.2501 56.25 54.5001 60.25 58.5001V75.0001Z" fill="#616161"/>
</svg>
