<svg width="200" height="200" viewBox="0 0 200 200" fill="none" xmlns="http://www.w3.org/2000/svg">
<path d="M91.6667 58.3334H108.333V75.0001H91.6667V58.3334Z" fill="#786666"/>
<path d="M91.6667 91.6668H108.333V141.667H91.6667V91.6668Z" fill="#786666"/>
<path fill-rule="evenodd" clip-rule="evenodd" d="M16.6667 100C16.6667 54.0001 53.9999 16.6667 100 16.6667C146 16.6667 183.333 54.0001 183.333 100C183.333 146 146 183.333 100 183.333C53.9999 183.333 16.6667 146 16.6667 100ZM33.3334 100C33.3334 136.75 63.2497 166.667 100 166.667C136.75 166.667 166.667 136.75 166.667 100C166.667 63.2501 136.75 33.3334 100 33.3334C63.2497 33.3334 33.3334 63.2501 33.3334 100Z" fill="#786666"/>
</svg>
