<svg width="1174" height="306" viewBox="0 0 1174 306" fill="none" xmlns="http://www.w3.org/2000/svg">
<path d="M150 284.2C142.8 287.4 134 290.6 123.6 293.8C113.2 297 102.267 298.6 90.8 298.6C83.3333 298.6 76.2667 297.667 69.6 295.8C63.2 293.933 57.4667 291 52.4 287C47.6 282.733 43.7333 277.4 40.8 271C37.8667 264.333 36.4 256.333 36.4 247V126.6H8.8V85.4H36.4V17.4H90V85.4H134V126.6H90V229C90 236.467 91.8667 241.8 95.6 245C99.6 247.933 104.4 249.4 110 249.4C115.6 249.4 121.067 248.467 126.4 246.6C131.733 244.733 136 243.133 139.2 241.8L150 284.2ZM437.916 85.4H488.716L401.116 295H357.116L321.116 203L285.516 295H241.516L154.316 85.4H204.716L267.116 244.6L292.716 176.6L255.916 85.8H299.116L321.116 150.2L343.516 85.8H386.716L350.316 176.6L375.516 244.6L437.916 85.4ZM513.463 295V85.4H567.063V295H513.463ZM513.463 56.2V2.99999H567.063V56.2H513.463ZM615.416 295V85.4H669.016V295H615.416ZM615.416 56.2V2.99999H669.016V56.2H615.416ZM912.169 295H858.569V177.4C858.569 160.6 855.635 148.333 849.769 140.6C843.902 132.867 835.769 129 825.369 129C820.035 129 814.569 130.067 808.969 132.2C803.369 134.333 798.035 137.4 792.969 141.4C788.169 145.133 783.769 149.667 779.769 155C775.769 160.333 772.835 166.2 770.969 172.6V295H717.369V85.4H765.769V124.2C773.502 110.867 784.702 100.467 799.369 93C814.035 85.5333 830.569 81.8 848.969 81.8C862.035 81.8 872.702 84.2 880.969 89C889.235 93.8 895.635 100.067 900.169 107.8C904.702 115.533 907.769 124.333 909.369 134.2C911.235 144.067 912.169 154.067 912.169 164.2V295ZM1055.98 299C1039.18 299 1023.98 296.2 1010.38 290.6C996.775 284.733 985.175 276.867 975.575 267C965.975 257.133 958.508 245.667 953.175 232.6C948.108 219.533 945.575 205.8 945.575 191.4C945.575 176.467 948.108 162.467 953.175 149.4C958.242 136.067 965.575 124.467 975.175 114.6C984.775 104.467 996.375 96.4667 1009.98 90.6C1023.84 84.7333 1039.31 81.8 1056.38 81.8C1073.44 81.8 1088.64 84.7333 1101.98 90.6C1115.58 96.4667 1127.04 104.333 1136.37 114.2C1145.98 124.067 1153.18 135.533 1157.98 148.6C1163.04 161.667 1165.58 175.267 1165.58 189.4C1165.58 192.867 1165.44 196.2 1165.18 199.4C1165.18 202.6 1164.91 205.267 1164.38 207.4H1002.38C1003.18 215.667 1005.18 223 1008.38 229.4C1011.58 235.8 1015.71 241.267 1020.78 245.8C1025.84 250.333 1031.58 253.8 1037.98 256.2C1044.38 258.6 1051.04 259.8 1057.98 259.8C1068.64 259.8 1078.64 257.267 1087.98 252.2C1097.58 246.867 1104.11 239.933 1107.58 231.4L1153.58 244.2C1145.84 260.2 1133.44 273.4 1116.38 283.8C1099.58 293.933 1079.44 299 1055.98 299ZM1110.38 172.6C1109.04 156.867 1103.18 144.333 1092.78 135C1082.64 125.4 1070.24 120.6 1055.58 120.6C1048.38 120.6 1041.58 121.933 1035.18 124.6C1029.04 127 1023.58 130.467 1018.78 135C1013.98 139.533 1009.98 145 1006.78 151.4C1003.84 157.8 1002.11 164.867 1001.58 172.6H1110.38Z" fill="#F64E5A"/>
<path d="M136.674 53L141.912 26.756H146.07L140.778 53H136.674ZM145.422 21.302C144.702 21.302 144.072 21.104 143.532 20.708C143.028 20.276 142.776 19.664 142.776 18.872C142.776 17.972 143.082 17.234 143.694 16.658C144.342 16.046 145.08 15.74 145.908 15.74C146.628 15.74 147.24 15.956 147.744 16.388C148.284 16.82 148.554 17.432 148.554 18.224C148.554 19.124 148.23 19.862 147.582 20.438C146.97 21.014 146.25 21.302 145.422 21.302ZM152.188 53L157.372 26.756H160.774L160.396 30.698H160.612C162.124 29.402 163.618 28.322 165.094 27.458C166.57 26.558 168.136 26.108 169.792 26.108C172.024 26.108 173.608 26.684 174.544 27.836C175.516 28.988 176.002 30.59 176.002 32.642C176.002 33.254 175.966 33.83 175.894 34.37C175.858 34.91 175.75 35.54 175.57 36.26L172.222 53H168.118L171.358 36.8C171.502 36.08 171.61 35.504 171.682 35.072C171.754 34.64 171.79 34.19 171.79 33.722C171.79 32.39 171.484 31.382 170.872 30.698C170.26 30.014 169.27 29.672 167.902 29.672C166.858 29.672 165.688 30.05 164.392 30.806C163.132 31.562 161.674 32.768 160.018 34.424L156.292 53H152.188ZM191.576 53.648C190.424 53.648 189.452 53.486 188.66 53.162C187.868 52.874 187.22 52.478 186.716 51.974C186.212 51.434 185.852 50.822 185.636 50.138C185.42 49.418 185.312 48.644 185.312 47.816C185.312 47.276 185.33 46.79 185.366 46.358C185.438 45.89 185.51 45.404 185.582 44.9L188.66 30.104H184.826L185.42 27.026L189.524 26.756L191.468 19.52H194.978L193.52 26.756H200.162L199.514 30.104H192.764L189.686 45.116C189.578 45.764 189.524 46.412 189.524 47.06C189.524 48.14 189.758 48.95 190.226 49.49C190.73 50.03 191.612 50.3 192.872 50.3C193.376 50.3 193.862 50.21 194.33 50.03C194.798 49.85 195.23 49.67 195.626 49.49L196.544 52.46C195.932 52.748 195.212 53.018 194.384 53.27C193.556 53.522 192.62 53.648 191.576 53.648ZM203.52 53L208.704 26.756H212.106L211.512 31.778H211.728C212.772 30.158 213.978 28.808 215.346 27.728C216.75 26.648 218.262 26.108 219.882 26.108C220.782 26.108 221.61 26.27 222.366 26.594L220.908 30.266C220.332 29.978 219.576 29.834 218.64 29.834C217.344 29.834 216.012 30.392 214.644 31.508C213.276 32.624 212.034 34.262 210.918 36.422L207.624 53H203.52ZM233.924 53.648C231.08 53.648 228.812 52.712 227.12 50.84C225.428 48.968 224.582 46.394 224.582 43.118C224.582 40.634 224.978 38.348 225.77 36.26C226.562 34.172 227.624 32.39 228.956 30.914C230.288 29.402 231.8 28.232 233.492 27.404C235.184 26.54 236.93 26.108 238.73 26.108C241.574 26.108 243.842 27.044 245.534 28.916C247.262 30.788 248.126 33.362 248.126 36.638C248.126 39.122 247.712 41.408 246.884 43.496C246.092 45.584 245.03 47.384 243.698 48.896C242.402 50.372 240.89 51.542 239.162 52.406C237.47 53.234 235.724 53.648 233.924 53.648ZM234.356 50.192C235.58 50.192 236.75 49.85 237.866 49.166C239.018 48.446 240.044 47.492 240.944 46.304C241.844 45.116 242.564 43.712 243.104 42.092C243.644 40.472 243.914 38.744 243.914 36.908C243.914 34.532 243.428 32.714 242.456 31.454C241.52 30.158 240.134 29.51 238.298 29.51C237.11 29.51 235.94 29.87 234.788 30.59C233.636 31.274 232.61 32.228 231.71 33.452C230.81 34.64 230.09 36.044 229.55 37.664C229.01 39.284 228.74 41.012 228.74 42.848C228.74 45.224 229.208 47.042 230.144 48.302C231.116 49.562 232.52 50.192 234.356 50.192ZM275.647 29.942L276.511 24.812L278.563 14.552H282.721L274.945 53H271.543L271.975 49.112H271.759C270.499 50.48 269.077 51.578 267.493 52.406C265.909 53.234 264.289 53.648 262.633 53.648C260.329 53.648 258.493 52.838 257.125 51.218C255.757 49.598 255.073 47.24 255.073 44.144C255.073 41.624 255.469 39.266 256.261 37.07C257.053 34.874 258.115 32.966 259.447 31.346C260.779 29.726 262.291 28.448 263.983 27.512C265.675 26.576 267.439 26.108 269.275 26.108C270.679 26.108 271.903 26.468 272.947 27.188C273.991 27.872 274.837 28.79 275.485 29.942H275.647ZM264.145 50.192C265.513 50.192 266.899 49.796 268.303 49.004C269.707 48.176 271.075 46.898 272.407 45.17L274.783 33.452C274.027 32.084 273.199 31.094 272.299 30.482C271.399 29.87 270.445 29.564 269.437 29.564C268.141 29.564 266.881 29.96 265.657 30.752C264.433 31.508 263.353 32.534 262.417 33.83C261.481 35.126 260.725 36.62 260.149 38.312C259.609 39.968 259.339 41.696 259.339 43.496C259.339 45.764 259.771 47.456 260.635 48.572C261.499 49.652 262.669 50.192 264.145 50.192ZM311.295 26.756L306.057 53H302.655L303.087 49.004H302.871C301.431 50.264 299.955 51.362 298.443 52.298C296.967 53.198 295.419 53.648 293.799 53.648C291.567 53.648 289.965 53.072 288.993 51.92C288.057 50.732 287.589 49.13 287.589 47.114C287.589 46.502 287.607 45.926 287.643 45.386C287.715 44.846 287.841 44.216 288.021 43.496L291.369 26.756H295.527L292.233 42.956C292.089 43.676 291.981 44.252 291.909 44.684C291.837 45.116 291.801 45.566 291.801 46.034C291.801 47.366 292.107 48.374 292.719 49.058C293.331 49.742 294.321 50.084 295.689 50.084C296.733 50.084 297.885 49.706 299.145 48.95C300.405 48.194 301.845 46.988 303.465 45.332L307.191 26.756H311.295ZM327.459 53.648C324.579 53.648 322.239 52.748 320.439 50.948C318.675 49.112 317.793 46.502 317.793 43.118C317.793 40.67 318.189 38.42 318.981 36.368C319.809 34.28 320.889 32.48 322.221 30.968C323.589 29.456 325.155 28.268 326.919 27.404C328.683 26.54 330.519 26.108 332.427 26.108C334.011 26.108 335.343 26.414 336.423 27.026C337.503 27.638 338.439 28.394 339.231 29.294L336.801 31.886C336.117 31.058 335.433 30.464 334.749 30.104C334.065 29.708 333.201 29.51 332.157 29.51C330.861 29.51 329.601 29.87 328.377 30.59C327.153 31.31 326.055 32.282 325.083 33.506C324.147 34.694 323.391 36.098 322.815 37.718C322.275 39.338 322.005 41.048 322.005 42.848C322.005 45.224 322.509 47.042 323.517 48.302C324.561 49.562 326.127 50.192 328.215 50.192C329.367 50.192 330.411 49.958 331.347 49.49C332.319 49.022 333.219 48.482 334.047 47.87L335.883 50.57C334.947 51.29 333.795 51.992 332.427 52.676C331.059 53.324 329.403 53.648 327.459 53.648ZM343.635 53L348.873 26.756H353.031L347.739 53H343.635ZM352.383 21.302C351.663 21.302 351.033 21.104 350.493 20.708C349.989 20.276 349.737 19.664 349.737 18.872C349.737 17.972 350.043 17.234 350.655 16.658C351.303 16.046 352.041 15.74 352.869 15.74C353.589 15.74 354.201 15.956 354.705 16.388C355.245 16.82 355.515 17.432 355.515 18.224C355.515 19.124 355.191 19.862 354.543 20.438C353.931 21.014 353.211 21.302 352.383 21.302ZM359.15 53L364.334 26.756H367.736L367.358 30.698H367.574C369.086 29.402 370.58 28.322 372.056 27.458C373.532 26.558 375.098 26.108 376.754 26.108C378.986 26.108 380.57 26.684 381.506 27.836C382.478 28.988 382.964 30.59 382.964 32.642C382.964 33.254 382.928 33.83 382.856 34.37C382.82 34.91 382.712 35.54 382.532 36.26L379.184 53H375.08L378.32 36.8C378.464 36.08 378.572 35.504 378.644 35.072C378.716 34.64 378.752 34.19 378.752 33.722C378.752 32.39 378.446 31.382 377.834 30.698C377.222 30.014 376.232 29.672 374.864 29.672C373.82 29.672 372.65 30.05 371.354 30.806C370.094 31.562 368.636 32.768 366.98 34.424L363.254 53H359.15ZM397.619 65.096C395.855 65.096 394.199 64.754 392.651 64.07C391.103 63.386 389.699 62.522 388.439 61.478L390.383 58.616C391.391 59.48 392.507 60.218 393.731 60.83C394.955 61.442 396.305 61.748 397.781 61.748C400.049 61.748 401.849 61.028 403.181 59.588C404.513 58.184 405.467 56.294 406.043 53.918L407.393 48.302C406.025 49.67 404.585 50.75 403.073 51.542C401.561 52.334 399.959 52.73 398.267 52.73C396.035 52.73 394.199 51.956 392.759 50.408C391.355 48.86 390.653 46.556 390.653 43.496C390.653 41.084 391.031 38.834 391.787 36.746C392.579 34.622 393.623 32.786 394.919 31.238C396.215 29.654 397.691 28.412 399.347 27.512C401.039 26.576 402.767 26.108 404.531 26.108C405.899 26.108 407.141 26.468 408.257 27.188C409.373 27.908 410.237 28.862 410.849 30.05H411.011L412.037 26.756H415.439L409.931 54.242C409.211 57.734 407.807 60.416 405.719 62.288C403.631 64.16 400.931 65.096 397.619 65.096ZM399.617 49.274C400.877 49.274 402.227 48.896 403.667 48.14C405.107 47.348 406.457 46.196 407.717 44.684L410.039 33.452C409.211 32.084 408.365 31.094 407.501 30.482C406.637 29.87 405.701 29.564 404.693 29.564C403.433 29.564 402.209 29.942 401.021 30.698C399.833 31.418 398.789 32.408 397.889 33.668C396.989 34.892 396.269 36.314 395.729 37.934C395.189 39.518 394.919 41.174 394.919 42.902C394.919 45.062 395.333 46.664 396.161 47.708C396.989 48.752 398.141 49.274 399.617 49.274Z" fill="#333333"/>
</svg>
