<svg width="176" height="48" viewBox="0 0 176 48" fill="none" xmlns="http://www.w3.org/2000/svg">
<g clip-path="url(#clip0)">
<path d="M21.5117 45.7878L18.9749 46.7653C17.9643 47.142 16.9305 47.4513 15.8801 47.6913C14.7583 47.8962 13.6207 47.9995 12.4808 48C11.058 48.0165 9.64545 47.7545 8.32055 47.2283C7.0983 46.6827 6.05846 45.7891 5.32718 44.6559C4.51824 43.2935 4.12954 41.7168 4.21101 40.1286V21.7106H0V15.4341H4.21101V5.14469H12.3794V15.4341H19.0764V21.7106H12.3794V37.1447C12.3307 37.5847 12.3883 38.0301 12.5475 38.4425C12.7066 38.8548 12.9623 39.2216 13.2926 39.5113C13.804 40.0456 14.4888 40.3745 15.2205 40.4373C16.0697 40.4338 16.9115 40.277 17.7065 39.9743L19.6345 39.254L21.5117 45.7878Z" fill="#333333"/>
<path d="M65.1944 15.4341H72.9568L59.6135 47.3826H52.7643L47.4371 33.6463L42.3636 47.3826H35.5143L22.0188 15.4341H29.7305L39.218 39.5627L42.9216 29.2733L37.3915 15.4341H44.1393L47.4371 25.209L50.7349 15.4341H57.4826L52.0032 29.119L55.7576 39.4084L65.1944 15.4341Z" fill="#333333"/>
<path d="M76.7114 47.3826V15.0224H84.8798V47.3826H76.7114Z" fill="#333333"/>
<path d="M92.2366 47.3826V15.0224H100.405V47.3826H92.2366Z" fill="#333333"/>
<path d="M137.391 47.3826H129.273V29.479C129.425 27.5251 128.944 25.5743 127.903 23.9228C127.476 23.3407 126.916 22.8727 126.27 22.559C125.625 22.2453 124.914 22.0954 124.199 22.1221C123.047 22.1439 121.917 22.4437 120.902 22.9967C119.752 23.5669 118.719 24.3524 117.858 25.3118C116.985 26.2922 116.327 27.4497 115.93 28.7073V47.3826H107.761V15.434H115.118V21.3504C115.926 19.9844 116.975 18.781 118.213 17.8006C119.53 16.7757 121.004 15.9763 122.576 15.434C124.222 14.9305 125.93 14.6706 127.649 14.6623C129.404 14.5709 131.153 14.9432 132.723 15.7427C133.965 16.3604 134.991 17.3475 135.666 18.5723C136.334 19.8487 136.813 21.2182 137.086 22.6366C137.332 24.1499 137.451 25.6817 137.441 27.2154L137.391 47.3826Z" fill="#333333"/>
<path d="M159.308 48C156.878 48.0732 154.46 47.6352 152.205 46.7139C150.303 45.8524 148.581 44.63 147.132 43.1126C145.695 41.6356 144.558 39.8879 143.783 37.9679C142.971 35.9781 142.558 33.8446 142.566 31.6913C142.551 28.7693 143.248 25.8888 144.595 23.3055C145.984 20.7832 148.017 18.6864 150.48 17.2348C153.221 15.6817 156.322 14.9002 159.46 14.9711C162.584 14.8916 165.67 15.674 168.39 17.2348C170.767 18.6683 172.714 20.7314 174.021 23.2026C175.334 25.686 176.014 28.4623 176 31.2798C176 31.7942 176 32.3087 176 32.8232C176 33.3376 176 33.7492 176 34.0579H151.191C151.299 35.5645 151.788 37.0173 152.611 38.2766C153.343 39.4665 154.4 40.4142 155.655 41.0032C156.872 41.6627 158.233 41.999 159.613 41.9807C161.232 41.9867 162.824 41.5609 164.23 40.746C165.656 40.1339 166.799 38.9932 167.426 37.5563L174.427 39.5627C173.634 41.2334 172.512 42.7216 171.129 43.9357C169.631 45.2344 167.912 46.2456 166.056 46.9196C163.89 47.6908 161.603 48.0568 159.308 48ZM150.988 28.8103H167.679C167.557 27.3142 167.088 25.8687 166.31 24.5917C165.589 23.4305 164.572 22.4884 163.367 21.865C162.104 21.177 160.691 20.8232 159.257 20.836C157.872 20.8219 156.508 21.1767 155.3 21.865C154.095 22.4884 153.078 23.4305 152.358 24.5917C151.579 25.8687 151.11 27.3142 150.988 28.8103Z" fill="#333333"/>
<path d="M102 6.85094C102 2.9854 99.0243 0 95.3424 0C91.6605 0 89.5959 3.18255 89.5959 3.18255L91.0084 4.84424C91.0084 4.84424 92.7505 1.9621 95.3283 1.9621C97.9061 1.9621 99.9542 3.96645 99.9542 6.80634C99.9542 9.64623 97.7672 11.9252 95.7591 11.9252C89.763 11.9252 89.2922 0 81.66 0C77.9922 0 75 3.13326 75 6.9988C75 10.8643 77.9357 13.9999 81.66 13.9999C85.3843 13.9999 87.6913 10.301 87.6913 10.301L86.4248 8.78018C86.4248 8.78018 84.2095 11.9252 81.6482 11.9252C79.0068 11.9252 77.0105 9.77297 77.0105 6.94482C77.0105 4.11666 79.0021 1.9621 81.6482 1.9621C87.656 1.9621 88.4918 14.0305 95.7167 13.9999C98.9207 13.9999 102 10.7165 102 6.85094Z" fill="#333333"/>
</g>
<defs>
<clipPath id="clip0">
<rect width="176" height="48" fill="white"/>
</clipPath>
</defs>
</svg>
