<svg width="114" height="90" viewBox="0 0 114 90" fill="none" xmlns="http://www.w3.org/2000/svg">
<g clip-path="url(#clip0)">
<path d="M26.1009 89.7947C26.1256 89.8116 26.1586 89.8031 26.1833 89.82C26.3776 89.9308 26.5949 89.9925 26.8171 90C26.9395 89.9998 27.0613 89.9827 27.1793 89.9494L57 81.6075L86.8207 89.9494C86.9387 89.9827 87.0605 89.9998 87.1829 90C87.4048 89.9932 87.6215 89.9304 87.814 89.8172C87.8415 89.8031 87.8717 89.8088 87.8964 89.7919L112.591 74.3231C112.847 74.1626 113.044 73.921 113.153 73.6352C113.261 73.3494 113.276 73.035 113.195 72.7397L99.5195 23.5209C99.4636 23.316 99.3629 23.1267 99.225 22.9675C99.0872 22.8083 98.9158 22.6833 98.7239 22.602C98.5319 22.5207 98.3245 22.4853 98.1172 22.4983C97.9099 22.5113 97.7083 22.5725 97.5275 22.6772L83.9122 30.5072C83.614 30.7001 83.3996 31.0032 83.3132 31.3536C83.2269 31.704 83.2752 32.0751 83.4482 32.39C83.6212 32.705 83.9057 32.9397 84.2428 33.0457C84.5799 33.1518 84.9439 33.121 85.2595 32.9597L97.3573 25.9988L110.273 72.4781L88.2805 86.2566L83.0561 43.4194C83.011 43.049 82.8242 42.7122 82.5368 42.483C82.2494 42.2539 81.885 42.1511 81.5236 42.1973C81.1623 42.2436 80.8337 42.4351 80.6101 42.7296C80.3866 43.0242 80.2863 43.3978 80.3314 43.7681L85.564 86.6841L58.372 79.0762V71.3981C58.372 71.0252 58.2274 70.6675 57.9701 70.4038C57.7128 70.14 57.3639 69.9919 57 69.9919C56.6362 69.9919 56.2872 70.14 56.0299 70.4038C55.7726 70.6675 55.6281 71.0252 55.6281 71.3981V79.0762L28.4333 86.6841L33.6659 43.7681C33.6882 43.5848 33.6751 43.3987 33.6273 43.2205C33.5795 43.0423 33.4979 42.8755 33.3871 42.7296C33.2764 42.5838 33.1388 42.4617 32.9821 42.3704C32.8253 42.279 32.6526 42.2202 32.4736 42.1973C32.2947 42.1744 32.1132 42.1879 31.9394 42.2369C31.7655 42.2859 31.6028 42.3696 31.4605 42.483C31.3182 42.5965 31.1991 42.7376 31.11 42.8983C31.0209 43.0589 30.9635 43.236 30.9412 43.4194L25.7195 86.2566L3.72716 72.4809L16.6427 26.0044L28.7406 32.9653C29.0561 33.1266 29.4201 33.1574 29.7572 33.0514C30.0943 32.9453 30.3788 32.7106 30.5518 32.3956C30.7248 32.0807 30.7732 31.7097 30.6868 31.3592C30.6004 31.0088 30.386 30.7058 30.0878 30.5128L16.4698 22.68C16.2895 22.5741 16.0878 22.512 15.8804 22.4984C15.673 22.4849 15.4653 22.5201 15.2732 22.6016C15.0812 22.6831 14.9099 22.8085 14.7724 22.9684C14.635 23.1282 14.5352 23.3182 14.4805 23.5238L0.804903 72.7425C0.72219 73.0378 0.736473 73.3527 0.845552 73.6388C0.954632 73.925 1.15246 74.1664 1.40856 74.3259L26.1009 89.7947Z" fill="#616161"/>
<path d="M56.0699 65.7225C56.3217 65.9608 56.6515 66.0939 56.9943 66.0954C57.3371 66.097 57.6681 65.967 57.922 65.7309C58.8357 64.8788 80.3232 44.6681 80.3232 23.9062C80.3232 10.4991 70.0802 0 57 0C43.9199 0 33.6769 10.4991 33.6769 23.9062C33.6769 44.3081 55.1561 64.8562 56.0699 65.7225ZM57 2.8125C68.7302 2.8125 77.5793 11.88 77.5793 23.9062C77.5793 41.0541 61.1351 58.6041 57.0083 62.7384C52.8897 58.5562 36.4208 40.7756 36.4208 23.9062C36.4208 11.88 45.2699 2.8125 57 2.8125Z" fill="#616161"/>
<path d="M69.3476 23.9062C69.3476 16.9284 63.8077 11.25 57 11.25C50.1924 11.25 44.6525 16.9284 44.6525 23.9062C44.6525 30.8841 50.1924 36.5625 57 36.5625C63.8077 36.5625 69.3476 30.8841 69.3476 23.9062ZM57 33.75C51.7043 33.75 47.3964 29.3344 47.3964 23.9062C47.3964 18.4781 51.7043 14.0625 57 14.0625C62.2958 14.0625 66.6037 18.4781 66.6037 23.9062C66.6037 29.3344 62.2958 33.75 57 33.75Z" fill="#616161"/>
</g>
<defs>
<clipPath id="clip0">
<rect width="112.5" height="90" fill="white" transform="translate(0.75)"/>
</clipPath>
</defs>
</svg>
