<svg width="200" height="200" viewBox="0 0 200 200" fill="none" xmlns="http://www.w3.org/2000/svg">
<path d="M100 59.9411C77.832 59.9411 59.9414 77.8317 59.9414 99.9997C59.9414 122.168 77.832 140.058 100 140.058C122.168 140.058 140.059 122.168 140.059 99.9997C140.059 77.8317 122.168 59.9411 100 59.9411ZM100 126.035C85.6641 126.035 73.9649 114.336 73.9649 99.9997C73.9649 85.6638 85.6641 73.9645 100 73.9645C114.336 73.9645 126.035 85.6638 126.035 99.9997C126.035 114.336 114.336 126.035 100 126.035ZM141.699 48.9645C136.523 48.9645 132.344 53.1442 132.344 58.32C132.344 63.4958 136.523 67.6755 141.699 67.6755C146.875 67.6755 151.055 63.5153 151.055 58.32C151.056 57.091 150.815 55.8738 150.346 54.738C149.876 53.6023 149.187 52.5703 148.318 51.7013C147.449 50.8322 146.417 50.1432 145.281 49.6735C144.145 49.2039 142.928 48.963 141.699 48.9645ZM178.086 99.9997C178.086 89.2184 178.184 78.5349 177.578 67.7731C176.973 55.2731 174.121 44.1794 164.98 35.0388C155.82 25.8786 144.746 23.0466 132.246 22.4411C121.465 21.8356 110.781 21.9333 100.02 21.9333C89.2383 21.9333 78.5547 21.8356 67.793 22.4411C55.293 23.0466 44.1992 25.8981 35.0586 35.0388C25.8984 44.1989 23.0664 55.2731 22.4609 67.7731C21.8555 78.5544 21.9531 89.238 21.9531 99.9997C21.9531 110.761 21.8555 121.465 22.4609 132.226C23.0664 144.726 25.918 155.82 35.0586 164.961C44.2188 174.121 55.293 176.953 67.793 177.558C78.5742 178.164 89.2578 178.066 100.02 178.066C110.801 178.066 121.484 178.164 132.246 177.558C144.746 176.953 155.84 174.101 164.98 164.961C174.141 155.8 176.973 144.726 177.578 132.226C178.203 121.465 178.086 110.781 178.086 99.9997ZM160.898 146.054C159.473 149.609 157.754 152.265 155 155C152.246 157.754 149.609 159.472 146.055 160.898C135.781 164.98 111.387 164.062 100 164.062C88.6133 164.062 64.1992 164.98 53.9258 160.918C50.3711 159.492 47.7149 157.773 44.9805 155.019C42.2266 152.265 40.5078 149.629 39.082 146.074C35.0195 135.781 35.9375 111.386 35.9375 99.9997C35.9375 88.613 35.0195 64.1989 39.082 53.9255C40.5078 50.3708 42.2266 47.7145 44.9805 44.9802C47.7344 42.2458 50.3711 40.5075 53.9258 39.0817C64.1992 35.0192 88.6133 35.9372 100 35.9372C111.387 35.9372 135.801 35.0192 146.074 39.0817C149.629 40.5075 152.285 42.2263 155.02 44.9802C157.773 47.7341 159.492 50.3708 160.918 53.9255C164.98 64.1989 164.062 88.613 164.062 99.9997C164.062 111.386 164.98 135.781 160.898 146.054Z" fill="#786666"/>
</svg>
